<?xml version="1.0" encoding="utf-8"?>
<!-- Generator: Adobe Illustrator 21.0.2, SVG Export Plug-In . SVG Version: 6.00 Build 0)  -->
<svg version="1.1" id="Layer_1" xmlns:sketch="http://www.bohemiancoding.com/sketch/ns"
	 xmlns="http://www.w3.org/2000/svg" xmlns:xlink="http://www.w3.org/1999/xlink" x="0px" y="0px" viewBox="0 0 131.6 32.9"
	 style="enable-background:new 0 0 131.6 32.9;" xml:space="preserve">
<style type="text/css">
	.st0{enable-background:new    ;}
	.st1{fill:#FFFFFF;}
	.st2{fill:#FFFFFF;fill-opacity:0.4941;}
</style>
<title>SEARO + Rectangle 3</title>
<desc>Created with Sketch.</desc>
<g id="Page-1" sketch:type="MSPage">
	<g id="No-result" transform="translate(-122.000000, -64.000000)" sketch:type="MSArtboardGroup">
		<g id="SEARO-_x2B_-Rectangle-3" transform="translate(121.000000, 55.000000)" sketch:type="MSLayerGroup">
			<g class="st0">
				<path class="st1" d="M15.2,15.1c-1-1.4-2.7-2-4.5-2c-2.1,0-4.2,0.9-4.2,3.3c0,5.1,12.1,2.2,12.1,11.3c0,5.5-4.3,8.1-9.3,8.1
					c-3.2,0-6.3-1-8.4-3.5L4.4,29c1.1,1.7,3,2.7,5,2.7c2.1,0,4.5-1.2,4.5-3.5c0-5.6-12.1-2.4-12.1-11.5c0-5.3,4.7-7.7,9.4-7.7
					c2.7,0,5.3,0.8,7.3,2.6L15.2,15.1z"/>
				<path class="st1" d="M25.4,9.7h16.9v4.1H29.9V20h11.7v4.1H29.9V31h13v4.1H25.4V9.7z"/>
				<path class="st1" d="M57.6,9.7h3.9l11,25.5h-5.2l-2.4-5.8H53.9l-2.3,5.8h-5.1L57.6,9.7z M63.3,25.4L59.4,15l-4,10.4H63.3z"/>
				<path class="st1" d="M77.3,9.7h8.9c4.9,0,9.5,1.6,9.5,7.3c0,3.7-2.1,6.4-5.9,6.9l6.8,11.3h-5.5l-5.9-10.8h-3.3v10.8h-4.5V9.7z
					 M85.4,20.4c2.6,0,5.5-0.2,5.5-3.5c0-3-2.8-3.4-5.1-3.4h-3.9v6.9H85.4z"/>
				<path class="st1" d="M114.1,9c8-0.1,13.6,5.2,13.6,13.4c0,8-5.6,13.3-13.6,13.4c-7.8,0-13.5-5.3-13.5-13.3
					C100.6,14.3,106.2,9,114.1,9z M114.1,31.7c5.3,0,8.8-4,8.8-9.5c0-5.1-3.5-9.1-8.8-9.1c-5.3,0-8.7,4-8.7,9.1
					C105.4,27.6,108.9,31.7,114.1,31.7z"/>
			</g>

				<rect id="Rectangle-3" x="123.7" y="29" sketch:type="MSShapeGroup" transform="matrix(0.7071 -0.7071 0.7071 0.7071 11.8752 99.6686)" class="st2" width="5" height="13">
			</rect>
		</g>
	</g>
</g>
</svg>
