<?xml version="1.0" encoding="utf-8"?>
<!-- Generator: Adobe Illustrator 21.0.2, SVG Export Plug-In . SVG Version: 6.00 Build 0)  -->
<svg version="1.1" id="Layer_1" xmlns:sketch="http://www.bohemiancoding.com/sketch/ns"
	 xmlns="http://www.w3.org/2000/svg" xmlns:xlink="http://www.w3.org/1999/xlink" x="0px" y="0px" viewBox="0 0 15.2 14.9" width="15.2" height="14.9"
	 style="enable-background:new 0 0 15.2 14.9;" xml:space="preserve" >
<style type="text/css">
	.st0{enable-background:new    ;}
	.st1{fill:#FFFFFF;}
	.st2{fill:#FFFFFF;fill-opacity:0.4941;}
</style>
<title>O + Rectangle 3 Copy</title>
<desc>Created with Sketch.</desc>
<g id="Page-1" sketch:type="MSPage">
	<g id="No-result" transform="translate(-49.000000, -173.000000)" sketch:type="MSArtboardGroup">
		<g id="O-_x2B_-Rectangle-3-Copy" transform="translate(49.000000, 170.000000)" sketch:type="MSLayerGroup">
			<g class="st0">
				<path class="st1" d="M6,3c3.6-0.1,6.1,2.3,6.1,6c0,3.6-2.5,6-6.1,6c-3.5,0-6-2.4-6-6C0,5.4,2.5,3,6,3z M6.1,13.2
					c2.4,0,3.9-1.8,3.9-4.3c0-2.3-1.6-4.1-3.9-4.1c-2.4,0-3.9,1.8-3.9,4.1C2.1,11.4,3.7,13.2,6.1,13.2z"/>
			</g>
			<path id="Rectangle-3-Copy" sketch:type="MSShapeGroup" class="st2" d="M9.4,13.8l1.6-1.6l4.2,4.1l-1.6,1.6L9.4,13.8L9.4,13.8z"
				/>
		</g>
	</g>
</g>
</svg>
