<svg id="Layer_1" xmlns="http://www.w3.org/2000/svg" viewBox="0 0 131.6 32.9"><style>.st0{enable-background:new}.st1,.st2{fill:#fff}.st2{fill-opacity:.4941}</style><title>SEARO + Rectangle 3</title><g id="Page-1"><g id="No-result" transform="translate(-122 -64)"><g id="SEARO-_x2B_-Rectangle-3" transform="translate(121 55)"><g class="st0"><path class="st1" d="M15.2 15.1c-1-1.4-2.7-2-4.5-2-2.1 0-4.2.9-4.2 3.3 0 5.1 12.1 2.2 12.1 11.3 0 5.5-4.3 8.1-9.3 8.1-3.2 0-6.3-1-8.4-3.5L4.4 29c1.1 1.7 3 2.7 5 2.7 2.1 0 4.5-1.2 4.5-3.5 0-5.6-12.1-2.4-12.1-11.5 0-5.3 4.7-7.7 9.4-7.7 2.7 0 5.3.8 7.3 2.6l-3.3 3.5zm10.2-5.4h16.9v4.1H29.9V20h11.7v4.1H29.9V31h13v4.1H25.4V9.7zm32.2 0h3.9l11 25.5h-5.2l-2.4-5.8h-11l-2.3 5.8h-5.1L57.6 9.7zm5.7 15.7L59.4 15l-4 10.4h7.9zm14-15.7h8.9c4.9 0 9.5 1.6 9.5 7.3 0 3.7-2.1 6.4-5.9 6.9l6.8 11.3h-5.5l-5.9-10.8h-3.3v10.8h-4.5V9.7zm8.1 10.7c2.6 0 5.5-.2 5.5-3.5 0-3-2.8-3.4-5.1-3.4h-3.9v6.9h3.5zM114.1 9c8-.1 13.6 5.2 13.6 13.4 0 8-5.6 13.3-13.6 13.4-7.8 0-13.5-5.3-13.5-13.3 0-8.2 5.6-13.5 13.5-13.5zm0 22.7c5.3 0 8.8-4 8.8-9.5 0-5.1-3.5-9.1-8.8-9.1-5.3 0-8.7 4-8.7 9.1 0 5.4 3.5 9.5 8.7 9.5z"/></g><path id="Rectangle-3" transform="rotate(-45.001 126.248 35.501)" class="st2" d="M123.7 29h5v13h-5z"/></g></g></g></svg>