<svg id="Layer_1" xmlns="http://www.w3.org/2000/svg" viewBox="0 0 15.2 14.9"><style>.st0{enable-background:new}.st1,.st2{fill:#fff}.st2{fill-opacity:.4941}</style><title>O + Rectangle 3 Copy</title><g id="Page-1"><g id="No-result" transform="translate(-49 -173)"><g id="O-_x2B_-Rectangle-3-Copy" transform="translate(49 170)"><g class="st0"><path class="st1" d="M6 3c3.6-.1 6.1 2.3 6.1 6 0 3.6-2.5 6-6.1 6-3.5 0-6-2.4-6-6s2.5-6 6-6zm.1 10.2c2.4 0 3.9-1.8 3.9-4.3 0-2.3-1.6-4.1-3.9-4.1-2.4 0-3.9 1.8-3.9 4.1-.1 2.5 1.5 4.3 3.9 4.3z"/></g><path id="Rectangle-3-Copy" class="st2" d="M9.4 13.8l1.6-1.6 4.2 4.1-1.6 1.6-4.2-4.1z"/></g></g></g></svg>